<svg xmlns="http://www.w3.org/2000/svg" xmlns:svg="http://www.w3.org/2000/svg" style="enable-background:new 0 0 16 16" id="svg8" x="0" y="0" version="1.1" viewBox="0 0 16 16" xml:space="preserve"><style id="style1" type="text/css">.icon_x002D_canvas_x002D_transparent{opacity:0;fill:#f6f6f6}.icon_x002D_vs_x002D_out{fill:#f6f6f6}.icon_x002D_vs_x002D_action_x002D_blue{fill:#00539c}</style><g id="canvas" transform="matrix(0.5625,0,0,1,7,12.444445)"><path id="path1" d="M 16,-12.444444 V 3.5555556 H -12.444444 V -12.444444 Z" class="icon_x002D_canvas_x002D_transparent" style="stroke-width:1.33333"/></g><g id="outline" transform="matrix(0.5625,0,0,0.5625,7,7)"><path id="path2" d="M 5.793,0.879 8.621,3.707 7.328,5 H 10.5 c 3.033,0 5.5,2.467 5.5,5.5 0,3.032 -2.467,5.5 -5.5,5.5 h -1 v -4 h 1 C 11.327,12 12,11.327 12,10.5 12,9.673 11.327,9 10.5,9 H 7.328 L 8.621,10.293 5.793,13.121 0,7.328 V 6.672 Z" class="icon_x002D_vs_x002D_out"/></g><g id="iconBg" transform="matrix(0.5625,0,0,0.5625,7,7)"><path id="path3" d="M 5.793,2.293 7.207,3.707 4.914,6 H 10.5 C 12.981,6 15,8.019 15,10.5 15,12.981 12.981,15 10.5,15 V 13 C 11.878,13 13,11.879 13,10.5 13,9.121 11.878,8 10.5,8 H 4.914 L 7.207,10.293 5.793,11.707 1.086,7 Z" class="icon_x002D_vs_x002D_action_x002D_blue"/></g></svg>